<?xml version="1.0" encoding="utf-8"?>
<!-- Generator: Adobe Illustrator 21.0.0, SVG Export Plug-In . SVG Version: 6.00 Build 0)  -->
<svg version="1.1" id="Layer_1" xmlns="http://www.w3.org/2000/svg" xmlns:xlink="http://www.w3.org/1999/xlink" x="0px" y="0px"
	 viewBox="0 0 405 41" style="enable-background:new 0 0 405 41;" xml:space="preserve">
<style type="text/css">
	.st0{fill-rule:evenodd;clip-rule:evenodd;fill:#DD9F85;}
	.st1{fill:none;stroke:#DD9F85;stroke-miterlimit:10;}
</style>
<g>
	<g>
		<g>
			<path class="st0" d="M5.7,22.3l5.7-6.3V4.2H5.7v16.7V22.3z M6.8,5.2h3.6v10.4l-3.6,3.9V5.2z"/>
			<path class="st0" d="M17.8,9.8l6.4-5.6H6.2H5.7v5.6H17.8z M6.8,8.7V5.2h14.6l-4,3.5H6.8z"/>
		</g>
	</g>
	<g>
		<g>
			<path class="st0" d="M24,36.6l-6.3-5.7H5.9v5.7h16.7H24z M6.9,35.5V32h10.4l3.9,3.6H6.9z"/>
			<path class="st0" d="M11.4,24.5l-5.6-6.4V36v0.5h5.6V24.5z M10.4,35.5H6.9V20.9l3.5,4V35.5z"/>
		</g>
	</g>
	<g>
		<g>
			<path class="st0" d="M401.7,18.8l-5.7,6.3v11.8h5.7V20.2V18.8z M400.6,35.9h-3.6V25.5l3.6-3.9V35.9z"/>
			<path class="st0" d="M389.7,31.4l-6.4,5.6h17.9h0.5v-5.6H389.7z M400.6,32.4v3.5H386l4-3.5H400.6z"/>
		</g>
	</g>
	<g>
		<g>
			<path class="st0" d="M383.6,4.3l6.3,5.7h11.8V4.3h-16.7H383.6z M400.7,5.3v3.6h-10.4l-3.9-3.6H400.7z"/>
			<path class="st0" d="M396.1,16.3l5.6,6.4V4.8V4.3h-5.6V16.3z M397.2,5.3h3.5v14.6l-3.5-4V5.3z"/>
		</g>
	</g>
	<rect x="5.9" y="4.6" class="st1" width="395.4" height="31.9"/>
</g>
</svg>
